<?xml version="1.0" encoding="UTF-8" standalone="no"?>
<!-- Created with Inkscape (http://www.inkscape.org/) -->

<svg
   version="1.1"
   id="svg2016"
   width="682.66669"
   height="682.66669"
   viewBox="0 0 682.66669 682.66669"
   xmlns="http://www.w3.org/2000/svg"
   xmlns:svg="http://www.w3.org/2000/svg">
  <defs
     id="defs2020">
    <clipPath
       clipPathUnits="userSpaceOnUse"
       id="clipPath2030">
      <path
         d="M 0,512 H 512 V 0 H 0 Z"
         id="path2028" />
    </clipPath>
  </defs>
  <g
     id="g2022"
     transform="matrix(1.3333333,0,0,-1.3333333,0,682.66667)">
    <g
       id="g2024">
      <g
         id="g2026"
         clip-path="url(#clipPath2030)">
        <g
           id="g2032"
           transform="translate(288.5127,275.9385)">
          <path
             d="m 0,0 c -54.244,60.713 -115.935,94.101 -137.791,74.573 -21.856,-19.526 4.4,-84.574 58.644,-145.287 54.244,-60.713 115.935,-94.1 137.791,-74.573 C 80.499,-125.761 54.244,-60.713 0,0"
             style="fill:#fec96b;fill-opacity:1;fill-rule:evenodd;stroke:none"
             id="path2034" />
        </g>
        <g
           id="g2036"
           transform="translate(143.6143,336.6641)">
          <path
             d="m 0,0 -128.772,-250.898 c -5.453,-10.579 -6.56,-23.342 -1.991,-35.338 8.531,-22.389 33.597,-33.627 55.987,-25.097 l 263.759,99.811 c -28.281,-1.735 -78.31,29.803 -123.232,80.083 C 20.83,-81.16 -4.897,-27.909 0,0"
             style="fill:#ffdda3;fill-opacity:1;fill-rule:evenodd;stroke:none"
             id="path2038" />
        </g>
        <g
           id="g2040"
           transform="translate(440.8086,255.4863)">
          <path
             d="M 0,0 C 15.975,0 29.004,13.028 29.004,29.003 29.004,44.977 15.975,58.006 0,58.006 -15.975,58.006 -29.002,44.977 -29.002,29.003 -29.002,13.028 -15.975,0 0,0"
             style="fill:#a0e557;fill-opacity:1;fill-rule:evenodd;stroke:none"
             id="path2042" />
        </g>
        <g
           id="g2044"
           transform="translate(140.5088,199.8965)">
          <path
             d="M 0,0 16.291,-26.519 46.547,-33.818 26.36,-57.508 28.768,-88.538 0,-76.659 l -28.768,-11.879 2.408,31.03 -20.188,23.69 30.256,7.299 z"
             style="fill:#ff5d5d;fill-opacity:1;fill-rule:evenodd;stroke:none"
             id="path2046" />
        </g>
        <g
           id="g2048"
           transform="translate(391.2783,486.9072)">
          <path
             d="m 0,0 -2.443,-39.644 26.239,-29.819 -38.459,-9.927 -20.251,-34.169 -21.325,33.509 -38.756,8.701 25.279,30.636 -3.701,39.548 36.949,-14.574 z"
             style="fill:#ff5d5d;fill-opacity:1;fill-rule:evenodd;stroke:none"
             id="path2050" />
        </g>
        <g
           id="g2052"
           transform="translate(288.5127,275.9385)">
          <path
             d="m 0,0 c -54.244,60.713 -115.935,94.101 -137.791,74.573 -21.856,-19.526 4.4,-84.574 58.644,-145.287 54.244,-60.713 115.935,-94.1 137.791,-74.573 C 80.499,-125.761 54.244,-60.713 0,0 Z"
             style="fill:none;stroke:#000000;stroke-width:20;stroke-linecap:round;stroke-linejoin:round;stroke-miterlimit:22.926;stroke-dasharray:none;stroke-opacity:1"
             id="path2054" />
        </g>
        <g
           id="g2056"
           transform="translate(241.3965,90.6299)">
          <path
             d="M 0,0 91.201,34.512 C 62.92,32.777 12.891,64.315 -32.031,114.595 -76.952,164.874 -102.68,218.125 -97.782,246.034 L -226.555,-4.864 c -5.452,-10.578 -6.559,-23.342 -1.99,-35.338 8.53,-22.389 33.597,-33.627 55.986,-25.097 l 97.76,36.994"
             style="fill:none;stroke:#000000;stroke-width:20;stroke-linecap:round;stroke-linejoin:round;stroke-miterlimit:22.926;stroke-dasharray:none;stroke-opacity:1"
             id="path2058" />
        </g>
        <g
           id="g2060"
           transform="translate(449.1602,164.5654)">
          <path
             d="M 0,0 C -13.404,-5.992 -19.606,-21.284 -13.853,-34.156 -8.098,-47.027 7.434,-52.604 20.838,-46.611 47.646,-34.627 60.051,-4.042 48.542,21.7 20.27,84.942 -103.434,50.376 -137.146,2.473"
             style="fill:none;stroke:#000000;stroke-width:20;stroke-linecap:round;stroke-linejoin:round;stroke-miterlimit:22.926;stroke-dasharray:none;stroke-opacity:1"
             id="path2062" />
        </g>
        <g
           id="g2064"
           transform="translate(186.9639,440.709)">
          <path
             d="M 0,0 C -5.761,-12.183 -19.914,-17.573 -31.612,-12.041 -43.311,-6.51 -48.122,7.852 -42.362,20.033 -30.84,44.398 -2.131,55.992 20.863,44.116 99.561,3.472 43.897,-98.875 -0.417,-125.892"
             style="fill:none;stroke:#000000;stroke-width:20;stroke-linecap:round;stroke-linejoin:round;stroke-miterlimit:22.926;stroke-dasharray:none;stroke-opacity:1"
             id="path2066" />
        </g>
        <g
           id="g2068"
           transform="translate(338.8965,301.6074)">
          <path
             d="M 0,0 C 0,0 58.609,73.111 162.537,60.423"
             style="fill:none;stroke:#000000;stroke-width:20;stroke-linecap:round;stroke-linejoin:round;stroke-miterlimit:22.926;stroke-dasharray:none;stroke-opacity:1"
             id="path2070" />
        </g>
        <g
           id="g2072"
           transform="translate(309.9238,370.8398)">
          <path
             d="M 0,0 C 0,0 -9.28,-72.896 -83.994,-106.947"
             style="fill:none;stroke:#000000;stroke-width:20;stroke-linecap:round;stroke-linejoin:round;stroke-miterlimit:22.926;stroke-dasharray:none;stroke-opacity:1"
             id="path2074" />
        </g>
        <g
           id="g2076"
           transform="translate(440.8086,255.4863)">
          <path
             d="M 0,0 C 15.975,0 29.004,13.028 29.004,29.003 29.004,44.977 15.975,58.006 0,58.006 -15.975,58.006 -29.002,44.977 -29.002,29.003 -29.002,13.028 -15.975,0 0,0 Z"
             style="fill:none;stroke:#000000;stroke-width:20;stroke-linecap:round;stroke-linejoin:round;stroke-miterlimit:22.926;stroke-dasharray:none;stroke-opacity:1"
             id="path2078" />
        </g>
        <g
           id="g2080"
           transform="translate(140.5088,199.8965)">
          <path
             d="M 0,0 16.291,-26.519 46.547,-33.818 26.36,-57.508 28.768,-88.538 0,-76.659 l -28.768,-11.879 2.408,31.03 -20.188,23.69 30.256,7.299 z"
             style="fill:none;stroke:#000000;stroke-width:20;stroke-linecap:round;stroke-linejoin:round;stroke-miterlimit:22.926;stroke-dasharray:none;stroke-opacity:1"
             id="path2082" />
        </g>
        <g
           id="g2084"
           transform="translate(391.2783,486.9072)">
          <path
             d="m 0,0 -2.443,-39.644 26.239,-29.819 -38.459,-9.927 -20.251,-34.169 -21.325,33.509 -38.756,8.701 25.279,30.636 -3.701,39.548 36.949,-14.574 z"
             style="fill:none;stroke:#000000;stroke-width:20;stroke-linecap:round;stroke-linejoin:round;stroke-miterlimit:22.926;stroke-dasharray:none;stroke-opacity:1"
             id="path2086" />
        </g>
        <g
           id="g2088"
           transform="translate(200.7187,65.2363)">
          <path
             d="M 0,0 C 5.508,0 10,4.492 10,10 10,15.509 5.508,20 0,20 -5.508,20 -10.001,15.509 -10.001,10 -10.001,4.492 -5.508,0 0,0"
             style="fill:#000000;fill-opacity:1;fill-rule:evenodd;stroke:none"
             id="path2090" />
        </g>
      </g>
    </g>
  </g>
</svg>
