<?xml version="1.0" encoding="UTF-8"?>
<svg width="24.528mm" height="23.502mm" version="1.1" viewBox="0 0 24.528 23.502" xmlns="http://www.w3.org/2000/svg" xmlns:cc="http://creativecommons.org/ns#" xmlns:dc="http://purl.org/dc/elements/1.1/" xmlns:rdf="http://www.w3.org/1999/02/22-rdf-syntax-ns#">
 <metadata>
  <rdf:RDF>
   <cc:Work rdf:about="">
    <dc:format>image/svg+xml</dc:format>
    <dc:type rdf:resource="http://purl.org/dc/dcmitype/StillImage"/>
    <dc:title/>
   </cc:Work>
  </rdf:RDF>
 </metadata>
 <g transform="translate(-126.83 -81.231)">
  <ellipse cx="278.21" cy="107.55" rx="12.264" ry="11.751" fill="#b5fb49"/>
  <path transform="matrix(.26458 0 0 .26458 126.83 81.231)" d="m33.532 25.383v-0.11914c0-5.1228 4.1242-9.247 9.247-9.247h19.309c5.1228 0 9.247 4.1242 9.247 9.247v36.988c0 5.1228-4.1242 9.247-9.247 9.247h-19.309c-5.1228 0-9.247-4.1242-9.247-9.247l-1e-6 -3.2969" fill="none" stroke="#fff" stroke-width="4.611"/>
  <g transform="matrix(.74615 0 0 1.8641 80.169 -110.49)" fill="#fff">
   <rect x="68.366" y="107.44" width="9.2604" height="2.5513" ry="1.2757"/>
   <path transform="scale(-1,1)" d="m-75.948 111.22-4.4664-2.335 4.2554-2.7005z"/>
  </g>
 </g>
</svg>
