<?xml version="1.0" encoding="UTF-8"?>
<svg width="84.679mm" height="52.934mm" version="1.1" viewBox="0 0 84.679 52.934" xmlns="http://www.w3.org/2000/svg" xmlns:cc="http://creativecommons.org/ns#" xmlns:dc="http://purl.org/dc/elements/1.1/" xmlns:rdf="http://www.w3.org/1999/02/22-rdf-syntax-ns#">
 <defs>
  <filter id="filter898-8-9-5" x="-.016826" y="-.025519" width="1.0337" height="1.051" color-interpolation-filters="sRGB">
   <feGaussianBlur stdDeviation="0.84075437"/>
  </filter>
 </defs>
 <metadata>
  <rdf:RDF>
   <cc:Work rdf:about="">
    <dc:format>image/svg+xml</dc:format>
    <dc:type rdf:resource="http://purl.org/dc/dcmitype/StillImage"/>
    <dc:title/>
   </cc:Work>
  </rdf:RDF>
 </metadata>
 <g transform="translate(-85.416 -80.878)">
  <g transform="matrix(.28222 0 0 .28222 61.048 -331.81)">
   <rect transform="matrix(2.3677 0 0 2.1396 544.48 1103.8)" x="-191.48" y="174.11" width="119.92" height="79.072" rx="1.0683" ry="0" fill-opacity=".53815" filter="url(#filter898-8-9-5)"/>
   <rect x="102.45" y="1462.3" width="283.94" height="169.18" rx="2.5295" ry="0" fill="#fff" style="mix-blend-mode:normal"/>
   <g fill="#b3b3b3">
    <rect transform="matrix(1 .0027015 -.14242 .98981 0 0)" x="371.36" y="1502.7" width="185.86" height="14.954" ry="7.4769"/>
    <rect transform="matrix(.99994 -.010492 -.19782 .98024 0 0)" x="506.29" y="1563" width="130.35" height="7.5501" ry="3.775"/>
    <rect transform="matrix(.99994 -.010492 -.19782 .98024 0 0)" x="510.09" y="1587.3" width="130.35" height="7.5501" ry="3.775"/>
    <rect transform="matrix(.99994 -.010492 -.19782 .98024 0 0)" x="514.97" y="1611.9" width="130.35" height="7.5501" ry="3.775"/>
    <rect x="169.96" y="1523.7" width="13.46" height="12.439" ry="3.7212"/>
    <rect x="169.96" y="1549.3" width="13.46" height="12.439" ry="3.7212"/>
    <rect x="168.58" y="1572.8" width="13.46" height="12.439" ry="3.7212"/>
   </g>
   <path d="m169.96 1549.3 7.092 7.4926 16.687-18.419" fill="none" stroke="#09debb" stroke-width="5.625"/>
  </g>
 </g>
</svg>
